# xmcd
#
# Track frame offsets:
#	150
#	12047
#	22973
#	34822
#	47516
#	56612
#	67976
#	78782
#	89342
#	102146
#	115004
#	126516
#	140959
#	155603
#	168658
#	177201
#	187427
#	200089
#	211221
#	223804
#
# Disc length: 3132 seconds
#
# Revision: 1
# Processed by: cddbd v1.5.2PL0 Copyright (c) Steve Scherf et al.
# Submitted via: audiograbber 1.83.01
#
DISCID=220c3a14
DTITLE=Various Artist - Country Greats v17
DYEAR=2002
DGENRE=Country
TTITLE0=Del Reeves - Del Reeves  Girl On The Billboard
TTITLE1=Johnny Cash - Cry  Cry  Cry
TTITLE2=Don Williams - On Her Way To Be A Woman
TTITLE3=David Houston - My Elusive Dreams
TTITLE4=Del Reeves - Good Times Charlies
TTITLE5=Don Gibson - Give Myself A Party
TTITLE6=Faron Young - I Miss You Already
TTITLE7=Johnny Russell - Act Naturally
TTITLE8=Jerry Wallace - In The Misty Moonlight
TTITLE9=Jim Ed Brown - Morning
TTITLE10=Leon Ashley - Laura Whats He Got That I Ain't Got
TTITLE11=Lee Conway - Detroit City
TTITLE12=Lee Greenwood - Mornin' Ride
TTITLE13=Jim Ed Brown - You Can Have Her
TTITLE14=Bill Phillips - Little Boy Sad
TTITLE15=Jan Howard - Evil On Your Mind
TTITLE16=Jeannie Seely - I'll Love You More
TTITLE17=Johnny Paycheck - Tender Years
TTITLE18=Connie Smith - The Hurtins All Over
TTITLE19=Porter Wagoner - Eat Drink And Be Merry
EXTD=
EXTT0=
EXTT1=
EXTT2=
EXTT3=
EXTT4=
EXTT5=
EXTT6=
EXTT7=
EXTT8=
EXTT9=
EXTT10=
EXTT11=
EXTT12=
EXTT13=
EXTT14=
EXTT15=
EXTT16=
EXTT17=
EXTT18=
EXTT19=
PLAYORDER=
